<?xml version="1.0" encoding="UTF-8"?><svg id="Layer_2" xmlns="http://www.w3.org/2000/svg" viewBox="0 0 34.561 56.92"><g id="Layer_1-2"><path d="m34.349,25.226c-.656-2.583-2.63-4.32-4.164-6.37-.043-.057-.07-.117-.11-.174-.095-.178-.191-.356-.285-.534-.174-.328-.348-.656-.521-.985-.684-1.811-.66-3.788-1.09-5.752-1.04-4.744-4.589-8.708-9.083-10.449C14.619-.772,8.145-.296,4.789,3.497c-.772.872-1.241,1.818-1.454,2.798-.579,1.3-.878,2.745-.845,4.244.095,4.266,2.79,8.038,5.987,10.647,1.246,1.017,2.567,1.922,3.911,2.794.192.253.375.512.578.758,1.627,1.975,3.591,3.22,5.901,4.196.707,1.541-1.186,3.055-2.099,4.148-1.638,1.963-3.276,3.927-4.915,5.89-3.752,4.497-7.504,8.993-11.256,13.49-.89,1.066-.818,2.585.433,3.36,5.22,3.235,10.204-1.387,13.813-4.779,4.052-3.809,7.947-7.786,11.67-11.917,1.893-2.1,3.778-4.224,5.548-6.43,1.759-2.192,3.018-4.589,2.287-7.471Z" style="fill:#b3b3b3; stroke-width:0px;"/></g></svg>