<?xml version="1.0" encoding="UTF-8"?><svg id="Layer_2" xmlns="http://www.w3.org/2000/svg" viewBox="0 0 205.168 61.504"><g id="Layer_1-2"><path d="m203.344,1.572c-2.035-.36-4.069-.587-6.1-.727-12.84-1.295-25.816-1.098-38.618.567-14.771,1.921-29.264,5.645-43.063,11.273-7.761,3.165-15.288,6.86-22.505,11.125-.68.402-1.042.963-1.173,1.559-1.359,1.769-2.03,4.107-1.928,6.391-.453,1.847-.468,3.845.091,5.93.97,3.624,3.836,6.552,7.573,7.232,2.646,1.76,5.959,2.173,9.249,1.26,4.714-1.308,8.982-4.416,13.058-7.018,16.449-10.499,32.135-22.954,50.803-29.353,7.985-2.737,16.459-4.378,24.897-3.981,2.349.215,4.693.474,7.031.787,2.846.382,3.53-4.542.683-5.046Z" style="fill:#4d4d4d; stroke-width:0px;"/><path d="m105.564,19.095c-2.939-.143-5.527.981-7.977,2.418-1.487-.749-3.183-.986-4.731-.345-7.799,3.231-15.987,5.458-24.437,5.978-4.708.29-9.508-.177-14.234-.059-7.752-1.132-16.351-1.244-23.871.951-5.215,1.523-8.695,5.891-8.393,10.515-1.208,2.01-1.3,4.646.823,6.809,7.029,7.159,14.935,14.287,25.232,15.846,9.169,1.388,17.415-2.328,25.074-6.895.633.021,1.301-.088,1.992-.373,10.842-4.459,23.956-1.235,33.193-9.88.67-.627,1.292-1.309,1.858-2.031,1.84-.891,3.27-2.611,4.111-4.685,2.935-7.242.893-17.786-8.641-18.25Z" style="fill:#666; stroke-width:0px;"/><path d="m52.239,31.62c-2.085-2.161-4.943-3.272-7.334-5.032-2.599-1.914-4.72-4.325-6.765-6.803C30.644,10.702,23.111.164,10.088.071c-1.312-.009-2.391.413-3.227,1.081-.895.163-1.798.467-2.705.957C1.039,3.79-.539,7.157.166,10.62c.735,3.611,3.461,5.675,6.524,7.27,3.366,4.413,6.449,9.012,9.114,13.898,2.69,4.933,4.771,10.474,9.193,14.183,7.302,6.124,22.709,6.303,28.614-2.171,2.732-3.92,1.855-8.837-1.371-12.18Z" style="fill:#999; stroke-width:0px;"/></g></svg>