<?xml version="1.0" encoding="UTF-8"?><svg id="Layer_2" xmlns="http://www.w3.org/2000/svg" viewBox="0 0 32.627 74.081"><g id="Layer_1-2"><path d="m14.986,72.88c0,1.504,1.639,1.211,3.224,1.107,7.669-.504,13.4-6.955,14.292-14.378.88-7.322-2.987-14.371-8.315-19.193-1.1-4.214-1.858-8.656-.987-12.821,1.289-1.474,2.461-3.05,3.465-4.736.48-.805.951-1.684,1.394-2.605.525-.724,1.005-1.481,1.411-2.288,1.652-3.292,2.2-7.293.751-10.757-.123-.293-.267-.621-.429-.944-.579-1.4-1.48-2.686-2.835-3.766-4.759-3.793-10.803-2.933-15.33.336-.559-.409-1.311-.452-1.872.265C4.726,9.521,1.467,17.115.394,25.211.125,27.24-.018,29.283.002,31.33c.009.932.064,1.899.286,2.814-.293.799-.289,1.698.227,2.386,2.385,3.176,5.507,5.37,8.842,7.46,1.366.856,2.719,1.716,3.996,2.666,3.724,6.491,8.757,8.149,4.219,21.087" style="fill:#333; stroke-width:0px;"/></g></svg>